<?xml version="1.0" encoding="utf-8"?>
<!-- Generator: Adobe Illustrator 16.0.0, SVG Export Plug-In . SVG Version: 6.00 Build 0)  -->
<!DOCTYPE svg PUBLIC "-//W3C//DTD SVG 1.1//EN" "http://www.w3.org/Graphics/SVG/1.1/DTD/svg11.dtd" [
	<!ENTITY ns_flows "http://ns.adobe.com/Flows/1.0/">
	<!ENTITY ns_extend "http://ns.adobe.com/Extensibility/1.0/">
	<!ENTITY ns_ai "http://ns.adobe.com/AdobeIllustrator/10.0/">
	<!ENTITY ns_graphs "http://ns.adobe.com/Graphs/1.0/">
]>
<svg version="1.1" id="Слой_1" xmlns:x="&ns_extend;" xmlns:i="&ns_ai;" xmlns:graph="&ns_graphs;"
	 xmlns="http://www.w3.org/2000/svg" xmlns:xlink="http://www.w3.org/1999/xlink" xmlns:a="http://ns.adobe.com/AdobeSVGViewerExtensions/3.0/"
	 x="0px" y="0px" width="200px" height="60px" viewBox="0 0 200 60" enable-background="new 0 0 200 60" xml:space="preserve">
<g>
	<polygon fill="#009EE2" points="65.361,22.271 59.191,33.479 52.638,22.271 48.374,22.271 57.724,37.725 60.313,37.725 
		69.271,22.271 	"/>
	<path fill="#009EE2" d="M187.648,31.869h2.119c1.272,0,2.198-0.23,2.765-0.691c0.573-0.471,0.858-1.225,0.858-2.273v-3.63
		c0-1.06-0.285-1.828-0.858-2.297c-0.565-0.468-1.491-0.706-2.765-0.706h-13.916v15.452h3.709v-5.854h3.551l6.479,5.854H195
		L187.648,31.869z M179.561,29.209v-4.276h8.606c0.651,0,1.103,0.098,1.345,0.285c0.245,0.19,0.367,0.512,0.367,0.963v1.779
		c0,0.451-0.122,0.772-0.367,0.963c-0.242,0.188-0.691,0.286-1.345,0.286H179.561z"/>
	<path fill="#009EE2" d="M71.538,22.271l-9.173,15.454h3.765l1.949-3.393h10.22l1.95,3.393h4.226l-9.313-15.454H71.538z
		 M69.68,31.512l3.484-6.439l3.6,6.439H69.68z"/>
	<path fill="#009EE2" d="M48.099,24.263c-1.602-1.329-3.891-1.992-6.876-1.992H30.819v15.454h9.454c3.429,0,5.987-0.646,7.686-1.943
		c1.693-1.299,2.54-3.246,2.54-5.836C50.499,27.479,49.702,25.585,48.099,24.263z M45.036,33.673
		c-1.055,0.772-2.912,1.157-5.561,1.157h-4.854v-9.794h6.634c1.82,0,3.173,0.392,4.049,1.17c0.884,0.779,1.322,1.967,1.322,3.558
		C46.625,31.596,46.096,32.898,45.036,33.673z"/>
	<path fill="#009EE2" d="M15.671,18.859L5.001,37.723h4.373l2.194-4.117h11.956l2.266,4.117h4.929l-10.82-18.864H15.671z
		 M13.442,30.195l4.19-7.675l4.069,7.675H13.442z"/>
	<polygon fill="#009EE2" points="106.018,25.036 113.479,25.036 113.479,37.723 117.243,37.723 117.243,25.036 124.723,25.036 
		124.723,22.271 106.018,22.271 	"/>
	<path fill="#009EE2" d="M170.223,34.83h-10.762V22.271h-3.748v11.79c0,1.42,0.273,2.383,0.827,2.896
		c0.556,0.511,1.616,0.769,3.188,0.769h10.226c1.585,0,2.657-0.262,3.224-0.779c0.567-0.518,0.848-1.475,0.848-2.881V22.271h-3.799
		V34.83H170.223z"/>
	<polygon fill="#009EE2" points="5,37.725 5.001,37.723 5,37.723 	"/>
	<polygon fill="#009EE2" points="101.505,32.527 88.391,22.271 85.803,22.271 85.803,37.725 89.232,37.725 89.232,27.302 
		102.309,37.725 104.915,37.725 104.915,22.271 101.505,22.271 	"/>
	<path fill="#009EE2" d="M140.032,15.939c-8.925,0-15.991,8.432-13.989,17.23c1.986,8.74,11.941,13.442,20.025,9.726
		c4.967-2.283,8.299-7.338,8.299-12.819C154.367,22.281,147.938,15.939,140.032,15.939z M143.461,17.152
		c-0.182-0.027-0.438-0.092-0.723-0.162C142.98,17.039,143.223,17.091,143.461,17.152z M141.045,16.761
		c-0.408,0.029-0.746,0.16-0.885,0.512c-1.204-0.134-2.401-0.106-3.611-0.106C138.016,16.783,139.538,16.651,141.045,16.761z
		 M153.423,32.163c-1.034,6.47-6.882,11.271-13.391,11.271c-2.362,0-4.708-0.615-6.761-1.785c-0.955-0.545-3.526-1.897-2.84-3.271
		c0.506,0.063,0.98,0.105,1.491,0.105c0.259,0,1.009-0.729,0.955-1.012c-0.538-0.24-1.386-0.41-1.681-0.939
		c-0.319-0.576-0.75-1.242-0.776-1.918c-0.03-0.813-0.042-1.617-0.042-2.432c0-0.221-0.117-0.839,0.068-0.986
		c0.305-0.241,0.406-0.605,0.568-0.955c-0.356-0.258-0.894-0.479-1.022-0.916c-0.173-0.586-0.147-1.195-0.783-1.37l-0.16,0.264
		c-0.19-0.952-0.388-1.572,0.117-2.437c0.319-0.549-0.34-1.774-0.54-2.346l-0.575,0.398c1.585-2.943,4.255-5.235,7.478-6.357
		l1.07,0.487l-0.213,0.105l0.371,0.425c0.288-0.228,0.417-0.453,0.775-0.367c0.369,0.088,0.744,0.208,1.121,0.266
		c0.408,0.064,1.996,0.353,1.88-0.484c0.241,0,0.623,0.079,0.853,0c0.193-0.067,0.428-0.521,0.641-0.462
		c0.55,0.156,1.133-0.005,1.697-0.07l-0.146-0.196C150.1,18.928,154.495,25.453,153.423,32.163z"/>
	<path fill="#009EE2" d="M140.744,40.555l0.16,0.266c0.178-0.075,0.324-0.188,0.371-0.373l-0.371-0.266L140.744,40.555z"/>
	<path fill="#009EE2" d="M145.848,39.811c0.389,0.281,0.316,0.578,0.316,1.01c-0.419,0-0.816-0.225-1.223-0.158
		c0.121,0.367,1.303,1.035,1.664,0.675c0.65-0.647-0.068-1.296-0.494-1.791L145.848,39.811z"/>
	<path fill="#009EE2" d="M149.45,23.663c0.215-0.774,0.175-0.922-0.148-1.659l0.319,0.053c-0.672-0.873-1.354-1.718-2.072-2.551
		l-0.533,0.213c0.178,0.321,0.432,0.591,0.215,0.957l-1.115,0.213c0.154,0.248,0.322,0.436,0.264,0.745
		c-0.288-0.359-0.906-0.11-1.275,0c-0.115-0.137-1.063-0.792-1.1-0.741c-0.084,0.119-0.138,0.252-0.229,0.37
		c-0.131,0-0.545-0.066-0.614,0.042c-0.278,0.437-0.298,0.531-0.794,0.638c-0.329,0.07-0.479-0.128-0.774-0.017
		c-0.329,0.124-0.479,0.436-0.688,0.717c-0.278-0.511-1.62-0.027-2.127-0.105c-0.465-0.071-0.639-0.22-0.639-0.658
		c0-0.455-0.078-0.768-0.212-1.204c-0.354-0.067-0.757-0.211-1.116-0.213c-0.408-0.002-0.814,0.249-1.224,0.267
		c-0.358,0.015-0.883-0.266-1.224-0.16c-0.297,0.092-0.666,0.586-0.902,0.797l0.425,0.213c-0.468,0.141-0.804,0.328-1.223,0.585
		c-0.162-0.186-0.406-0.195-0.64-0.16c-0.168-0.562,1.17-1.325,1.543-1.646c-0.479,0.186-0.883,0.304-1.256,0.654
		c-0.418,0.393-0.894,0.601-1.317,0.961c-0.533,0.447-0.941,0.704-1.179,1.354c-0.064,0.179,0.19,0.415,0.19,0.629
		c0,0.325,0,0.649,0,0.974l0.798-0.319c0,0.407,0.1,0.944-0.107,1.303c-0.217,0.376-0.769,0.655-0.639,1.143l0.639,0.213
		c0.049,0.51,0.002,0.979,0.315,1.388c0.196,0.257,0.253,0.405,0.562,0.474c0.269,0.061,0.351,0.18,0.397,0.477
		c-0.655,0.466-0.893,0.615-1.171,1.358c-0.199,0.534,0,1.364,0.021,1.927c0.047,1.164,0.354,2.246,0.354,3.416
		c0.33,0.114,0.717,0.332,1.063,0.371c0.386,0.045,0.746-0.127,1.141-0.051c0.561,0.105,0.785,0.174,1.303-0.031
		c0.323-0.129,0.622-0.412,0.907-0.608c-0.089-0.263-0.13-0.394-0.304-0.57c-0.327-0.327-0.333-0.349-0.28-0.812
		c-0.513,0.32-0.647,0.189-1.224,0c0.35-0.491-0.396-1.31-0.266-1.967l0.479,0.16c0.062,0.526,0.256,0.842,0.512,1.311
		c0.245,0.443,0.633,0.125,0.892,0.643c0.316,0.635,1.592,0.876,2.213,0.918c0.067,0.424,0.613,0.461,0.656,0.879
		c0.049,0.477,0.348,0.811,0.83,0.504c0,0.363-0.128,0.98,0.018,1.313c0.221,0.506,0.396,0.961,0.529,1.496
		c0.31,1.234,1.719-0.264,1.477-1c0.67-0.344,1.34-0.688,2.01-1.031c0.221-0.113,0.236-0.357,0.516-0.482
		c0.28-0.131,0.564-0.229,0.826-0.4c-0.021,0.367,0.295,0.586,0.521,0.83c0.188,0.205,0.061,0.58,0.17,0.871l0.585-0.426l0.637,1.17
		l0.213-0.64c0.367,0.233,0.807,0.579,1.206,0.181c0.479-0.483,0.763-0.621,0.763-1.295c-0.256-0.107-0.467-0.266-0.691-0.426
		c0.699-1.398,2.479-1.693,2.871-3.402c0.059-0.254,0.229-0.817,0.158-1.063c-0.092-0.313-0.631-0.503-0.696-0.827
		c-0.156-0.743-0.542-1.739,0.483-1.989c0.276,0.414,0.467,0.756,0.639,1.224l0.318-0.903l-0.481-0.429
		c-0.017-0.386-0.11-0.843-0.052-1.224c0.078-0.52,0.211-0.644,0.113-1.179c-0.121-0.647-0.328-1.271-0.442-1.917
		c-0.083-0.468-0.011-0.625-0.522-0.625l-0.424,0.371C149.701,24.804,149.324,24.114,149.45,23.663z M133.898,28.572
		c-0.444,0.095-0.859-0.256-1.03-0.625c-0.243-0.528-0.563-0.632-1.104-0.836c0-0.818,0.598-0.891,1.293-1.125l0.223,0.393
		l-0.334,0.225c0.147,0.422,0.557,0.339,0.753,0.783C133.859,27.754,134.05,28.169,133.898,28.572z M136.432,28.628h-0.395
		c-0.049,0.265,0.048,0.431,0.161,0.654c0.124,0.241,0.028,0.435-0.05,0.696c-0.142,0.476-0.123,0.875-0.28,1.35
		c-0.315,0.078-0.956-0.247-0.956-0.586c0-0.385,0.515-0.991,0.279-1.287c-0.236-0.296-0.034-0.807,0.215-1.104
		c0.354-0.427,0.768-0.291,1.285-0.202l0.045,0.417L136.432,28.628z M137.943,29.875c0.009-0.134-0.06-0.227-0.225-0.227
		c-0.004-0.594,0.514-0.713,0.963-0.647l-0.162,0.11C138.6,29.545,138.363,29.805,137.943,29.875z"/>
</g>
</svg>
